HIERARCHY
ROOT hip
{
  OFFSET 0 0 0
  CHANNELS 6 Xposition Yposition Zposition Zrotation Yrotation Xrotation
  JOINT abdomen
  {
    OFFSET 0 20.6881 -0.73152
    CHANNELS 3 Zrotation Xrotation Yrotation
    JOINT chest
    {
      OFFSET 0 11.7043 -0.48768
      CHANNELS 3 Zrotation Xrotation Yrotation
      JOINT neck
      {
        OFFSET 0 22.1894 -2.19456
        CHANNELS 3 Zrotation Xrotation Yrotation
        JOINT head
        {
          OFFSET -0.24384 7.07133 1.2192
          CHANNELS 3 Zrotation Xrotation Yrotation
          JOINT leftEye
          {
            OFFSET 4.14528 8.04674 8.04672
            CHANNELS 3 Zrotation Xrotation Yrotation
            End Site
            {
              OFFSET 1 0 0
            }
          }
          JOINT rightEye
          {
            OFFSET -3.6576 8.04674 8.04672
            CHANNELS 3 Zrotation Xrotation Yrotation
            End Site
            {
              OFFSET 1 0 0
            }
          }
        }
      }
      JOINT rCollar
      {
        OFFSET -2.68224 19.2634 -4.8768
        CHANNELS 3 Zrotation Xrotation Yrotation
        JOINT rShldr
        {
          OFFSET -8.77824 -1.95073 1.46304
          CHANNELS 3 Zrotation Xrotation Yrotation
          JOINT rForeArm
          {
            OFFSET -28.1742 -1.7115 0.48768
            CHANNELS 3 Zrotation Xrotation Yrotation
            JOINT rHand
            {
              OFFSET -22.5879 0.773209 7.07136
              CHANNELS 3 Zrotation Xrotation Yrotation
              JOINT rThumb1
              {
                OFFSET -1.2192 -0.487915 3.41376
                CHANNELS 3 Zrotation Xrotation Yrotation
                JOINT rThumb2
                {
                  OFFSET -3.37035 -0.52449 3.41376
                  CHANNELS 3 Zrotation Xrotation Yrotation
                  End Site
                  {
                    OFFSET -1.78271 -1.18214 1.43049
                  }
                }
              }
              JOINT rIndex1
              {
                OFFSET -7.75947 0.938293 5.60832
                CHANNELS 3 Zrotation Xrotation Yrotation
                JOINT rIndex2
                {
                  OFFSET -2.54057 -0.884171 1.56538
                  CHANNELS 3 Zrotation Xrotation Yrotation
                  End Site
                  {
                    OFFSET -1.62519 -0.234802 1.16502
                  }
                }
              }
              JOINT rMid1
              {
                OFFSET -8.24714 1.18213 3.41376
                CHANNELS 3 Zrotation Xrotation Yrotation
                JOINT rMid2
                {
                  OFFSET -3.10165 -0.590103 1.0647
                  CHANNELS 3 Zrotation Xrotation Yrotation
                  End Site
                  {
                    OFFSET -2.48547 -0.328903 0.83742
                  }
                }
              }
              JOINT rRing1
              {
                OFFSET -8.82822 0.546677 1.51678
                CHANNELS 3 Zrotation Xrotation Yrotation
                JOINT rRing2
                {
                  OFFSET -2.60934 -0.819778 -0.0198488
                  CHANNELS 3 Zrotation Xrotation Yrotation
                  End Site
                  {
                    OFFSET -2.33842 -0.294052 0.168128
                  }
                }
              }
              JOINT rPinky1
              {
                OFFSET -8.27202 -0.0477905 -0.4584
                CHANNELS 3 Zrotation Xrotation Yrotation
                JOINT rPinky2
                {
                  OFFSET -1.82734 -0.647385 -0.700984
                  CHANNELS 3 Zrotation Xrotation Yrotation
                  End Site
                  {
                    OFFSET -1.69225 -0.51767 -0.607171
                  }
                }
              }
            }
          }
        }
      }
      JOINT lCollar
      {
        OFFSET 2.68224 19.2634 -4.8768
        CHANNELS 3 Zrotation Xrotation Yrotation
        JOINT lShldr
        {
          OFFSET 8.77824 -1.95073 1.46304
          CHANNELS 3 Zrotation Xrotation Yrotation
          JOINT lForeArm
          {
            OFFSET 28.1742 -1.7115 0.48768
            CHANNELS 3 Zrotation Xrotation Yrotation
            JOINT lHand
            {
              OFFSET 22.5879 0.773209 7.07136
              CHANNELS 3 Zrotation Xrotation Yrotation
              JOINT lThumb1
              {
                OFFSET 1.2192 -0.487915 3.41376
                CHANNELS 3 Zrotation Xrotation Yrotation
                JOINT lThumb2
                {
                  OFFSET 3.37035 -0.52449 3.41376
                  CHANNELS 3 Zrotation Xrotation Yrotation
                  End Site
                  {
                    OFFSET 1.78271 -1.18214 1.43049
                  }
                }
              }
              JOINT lIndex1
              {
                OFFSET 7.75947 0.938293 5.60832
                CHANNELS 3 Zrotation Xrotation Yrotation
                JOINT lIndex2
                {
                  OFFSET 2.54057 -0.884171 1.56538
                  CHANNELS 3 Zrotation Xrotation Yrotation
                  End Site
                  {
                    OFFSET 1.62519 -0.234802 1.16502
                  }
                }
              }
              JOINT lMid1
              {
                OFFSET 8.24714 1.18213 3.41376
                CHANNELS 3 Zrotation Xrotation Yrotation
                JOINT lMid2
                {
                  OFFSET 3.10165 -0.590103 1.0647
                  CHANNELS 3 Zrotation Xrotation Yrotation
                  End Site
                  {
                    OFFSET 2.48547 -0.328903 0.83742
                  }
                }
              }
              JOINT lRing1
              {
                OFFSET 8.82822 0.546677 1.51678
                CHANNELS 3 Zrotation Xrotation Yrotation
                JOINT lRing2
                {
                  OFFSET 2.60934 -0.819778 -0.0198488
                  CHANNELS 3 Zrotation Xrotation Yrotation
                  End Site
                  {
                    OFFSET 2.33842 -0.294052 0.168128
                  }
                }
              }
              JOINT lPinky1
              {
                OFFSET 8.27202 -0.0477905 -0.4584
                CHANNELS 3 Zrotation Xrotation Yrotation
                JOINT lPinky2
                {
                  OFFSET 1.82734 -0.647385 -0.700984
                  CHANNELS 3 Zrotation Xrotation Yrotation
                  End Site
                  {
                    OFFSET 1.69225 -0.51767 -0.607171
                  }
                }
              }
            }
          }
        }
      }
    }
  }
  JOINT rButtock
  {
    OFFSET -8.77824 4.35084 1.2192
    CHANNELS 3 Zrotation Xrotation Yrotation
    JOINT rThigh
    {
      OFFSET 0 -1.70687 -2.19456
      CHANNELS 3 Zrotation Xrotation Yrotation
      JOINT rShin
      {
        OFFSET 0 -36.8199 0.73152
        CHANNELS 3 Zrotation Xrotation Yrotation
        JOINT rFoot
        {
          OFFSET 0.73152 -45.1104 -5.12064
          CHANNELS 3 Zrotation Xrotation Yrotation
          End Site
          {
            OFFSET -1.1221 -3.69964 12.103
          }
        }
      }
    }
  }
  JOINT lButtock
  {
    OFFSET 8.77824 4.35084 1.2192
    CHANNELS 3 Zrotation Xrotation Yrotation
    JOINT lThigh
    {
      OFFSET 0 -1.70687 -2.19456
      CHANNELS 3 Zrotation Xrotation Yrotation
      JOINT lShin
      {
        OFFSET 0 -36.8199 0.73152
        CHANNELS 3 Zrotation Xrotation Yrotation
        JOINT lFoot
        {
          OFFSET -0.73152 -45.1104 -5.12064
          CHANNELS 3 Zrotation Xrotation Yrotation
          End Site
          {
            OFFSET 1.1221 -3.69964 12.103
          }
        }
      }
    }
  }
}
MOTION
Frames:	4
Frame Time:	0.00833333
21.6582 82.4042 -176.167 -178.655 148.219 -155.67 -11.5566 -26.6991 -3.93793 2.03913 3.81503 -0.292132 -10.9808 3.4799 -13.2718 16.918 5.61358 -24.3626 -0.0 0.0 0.0 -0.0 0.0 0.0 -6.74164e-13 6.9138e-13 -5.91397e-13 60.2135 5.50398 -11.7765 -13.5768 -6.61735 24.7078 -0.316763 -15.8109 -2.28085 2.16803e-09 -5.62808e-09 -5.33343e-09 3.81174e-09 -9.84943e-09 -9.20864e-09 2.16803e-09 -5.62808e-09 -5.33344e-09 7.73091 5.47488 0.417314 2.16803e-09 -5.62808e-09 -5.33343e-09 2.90554 0.965183 0.102902 2.16804e-09 -5.62808e-09 -5.33343e-09 10.2786 0.731801 0.0259123 2.16802e-09 -5.62808e-09 -5.33342e-09 2.22167 -0.733487 -0.20892 -6.74306e-13 6.91369e-13 -5.91565e-13 -61.482 2.03017 16.4823 18.4486 -11.1773 -35.034 5.35732 -52.9552 10.7315 -2.57887e-09 8.07748e-11 -1.7961e-09 -4.37659e-09 2.05252e-10 -3.20328e-09 -2.57887e-09 8.07762e-11 -1.79608e-09 -7.73091 5.47488 -0.417314 -2.57887e-09 8.07742e-11 -1.79609e-09 -2.90554 0.965183 -0.102902 -2.57887e-09 8.0773e-11 -1.79609e-09 -10.2786 0.731801 -0.0259123 -2.57886e-09 8.07729e-11 -1.7961e-09 -2.22167 -0.733487 0.20892 -2.03217e-16 0.0 -3.88251e-19 -1.80423 -47.1834 -6.60713 -0.383781 44.6317 1.30763 -8.87518 -11.294 -26.4614 2.03217e-16 0.0 3.88251e-19 -10.499 -40.2739 -14.739 0.043952 34.7755 -0.677432 6.10702 -14.5445 20.7088
21.6063 82.4278 -176.026 -178.519 149.298 -155.737 -11.6428 -26.9034 -3.78736 1.95106 3.88718 -0.243043 -11.0287 3.47722 -13.1669 16.6606 5.7497 -24.1556 -0.0 0.0 0.0 -0.0 0.0 0.0 -4.93408e-13 5.42623e-13 -7.13823e-13 60.8121 4.62862 -11.9833 -13.5712 -6.61243 24.6975 -0.334703 -16.2414 -2.34635 1.12859e-09 -5.25568e-09 -5.31474e-09 2.02047e-09 -9.21109e-09 -9.18779e-09 1.12859e-09 -5.25567e-09 -5.31475e-09 7.73091 5.47488 0.417314 1.12859e-09 -5.25567e-09 -5.31474e-09 2.90554 0.965183 0.102902 1.1286e-09 -5.25567e-09 -5.31474e-09 10.2786 0.731801 0.0259123 1.12858e-09 -5.25568e-09 -5.31473e-09 2.22167 -0.733487 -0.20892 -4.9351e-13 5.42616e-13 -7.13957e-13 -61.849 2.62747 16.2626 18.3581 -11.0773 -34.8276 5.207 -52.4712 10.5427 -2.91401e-09 2.96893e-10 -1.58642e-09 -4.96103e-09 5.96869e-10 -2.85611e-09 -2.91401e-09 2.96892e-10 -1.58642e-09 -7.73091 5.47488 -0.417314 -2.91401e-09 2.96892e-10 -1.58642e-09 -2.90554 0.965183 -0.102902 -2.91402e-09 2.9689e-10 -1.58642e-09 -10.2786 0.731801 -0.0259123 -2.91401e-09 2.96892e-10 -1.58643e-09 -2.22167 -0.733487 0.20892 -2.03217e-16 0.0 -3.88251e-19 -1.72084 -46.875 -6.19612 -0.375688 44.2408 1.29463 -8.68009 -11.2242 -26.1039 2.03217e-16 0.0 3.88251e-19 -10.4125 -39.8332 -14.2447 0.0323163 34.4855 -0.680088 6.25869 -14.4842 21.3291
21.5395 82.4385 -175.886 -178.395 150.439 -155.817 -11.7169 -27.1016 -3.61963 1.84922 3.95653 -0.190456 -11.0629 3.46189 -13.0472 16.3926 5.88751 -23.9197 -0.0 0.0 0.0 -0.0 0.0 0.0 -2.83431e-13 3.62043e-13 -7.84659e-13 61.423 3.77245 -12.1513 -13.5284 -6.57915 24.612 -0.351286 -16.626 -2.40514 3.90983e-11 -4.49615e-09 -4.84892e-09 1.36782e-10 -7.89316e-09 -8.39336e-09 3.90951e-11 -4.49614e-09 -4.84893e-09 7.73091 5.47488 0.417314 3.90922e-11 -4.49614e-09 -4.84892e-09 2.90554 0.965183 0.102902 3.9102e-11 -4.49614e-09 -4.84892e-09 10.2786 0.731801 0.0259123 3.90889e-11 -4.49614e-09 -4.84891e-09 2.22167 -0.733487 -0.20892 -2.83492e-13 3.62039e-13 -7.84766e-13 -62.2511 3.23408 16.0619 18.275 -10.9857 -34.6393 5.0789 -52.0478 10.3809 -2.99765e-09 4.91873e-10 -1.22899e-09 -5.11794e-09 9.44109e-10 -2.2436e-09 -2.99765e-09 4.9187e-10 -1.22899e-09 -7.73091 5.47488 -0.417314 -2.99765e-09 4.91871e-10 -1.229e-09 -2.90554 0.965183 -0.102902 -2.99766e-09 4.9187e-10 -1.229e-09 -10.2786 0.731801 -0.0259123 -2.99764e-09 4.91872e-10 -1.229e-09 -2.22167 -0.733487 0.20892 -2.03217e-16 0.0 -3.88251e-19 -1.54991 -46.5949 -5.4711 -0.370886 43.9502 1.28182 -8.43764 -11.1371 -25.6435 2.03217e-16 0.0 3.88251e-19 -10.3531 -39.4016 -13.7811 0.0215748 34.237 -0.682732 6.43786 -14.4512 21.9996
21.4508 82.4281 -175.743 -178.305 151.652 -155.916 -11.7455 -27.2797 -3.43602 1.74295 4.01636 -0.137149 -11.0897 3.41564 -12.9025 16.1166 6.03263 -23.6324 -0.0 0.0 0.0 -0.0 0.0 0.0 -1.29619e-13 2.2423e-13 -7.50661e-13 62.0263 2.96523 -12.2651 -13.4445 -6.51487 24.443 -0.365015 -16.9313 -2.45206 -6.01351e-10 -3.49686e-09 -4.05203e-09 -9.78109e-10 -6.14978e-09 -7.02067e-09 -6.01356e-10 -3.49685e-09 -4.05204e-09 7.73091 5.47488 0.417314 -6.01358e-10 -3.49685e-09 -4.05203e-09 2.90554 0.965183 0.102902 -6.01348e-10 -3.49685e-09 -4.05203e-09 10.2786 0.731801 0.0259123 -6.01361e-10 -3.49686e-09 -4.05202e-09 2.22167 -0.733487 -0.20892 -1.29654e-13 2.24228e-13 -7.5076e-13 -62.712 3.83213 15.9042 18.211 -10.9153 -34.4952 4.97499 -51.6945 10.2487 -2.71843e-09 5.54054e-10 -8.46683e-10 -4.65103e-09 1.04737e-09 -1.57298e-09 -2.71844e-09 5.54051e-10 -8.46686e-10 -7.73091 5.47488 -0.417314 -2.71843e-09 5.54053e-10 -8.46689e-10 -2.90554 0.965183 -0.102902 -2.71844e-09 5.54052e-10 -8.46691e-10 -10.2786 0.731801 -0.0259123 -2.71842e-09 5.54055e-10 -8.46695e-10 -2.22167 -0.733487 0.20892 -2.03217e-16 0.0 -3.88251e-19 -1.36394 -46.3852 -4.71719 -0.368413 43.7776 1.27348 -8.21276 -11.1374 -25.1153 2.03217e-16 0.0 3.88251e-19 -10.3189 -39.0007 -13.3683 0.0129191 34.0761 -0.688964 6.66993 -14.4783 22.747
